<svg width="191" height="191" viewBox="0 0 191 191" fill="none" xmlns="http://www.w3.org/2000/svg">
<circle cx="95.1955" cy="95.7414" r="72.1142" transform="rotate(-113.976 95.1955 95.7414)" fill="#C5FFC4"/>
<circle cx="95.1955" cy="95.7414" r="68.1142" transform="rotate(-113.976 95.1955 95.7414)" stroke="#008736" stroke-opacity="0.67" stroke-width="8"/>
<path d="M61.9064 32.0741C50.4252 37.18 40.6866 45.5918 33.7848 56.3646C26.883 67.1373 23.0913 79.8441 22.8358 93.0575C22.5803 106.271 25.8712 119.467 32.3385 131.164C38.8059 142.861 48.1936 152.594 59.447 159.272C70.7004 165.949 83.3735 169.305 96.0427 168.963C108.712 168.621 120.875 164.594 131.166 157.335C131.166 157.335 165.305 16.6631 61.9064 32.0741Z" fill="#2D4429" fill-opacity="0.5"/>
<path d="M84.9111 139.126C95.7375 141.514 105.657 140.038 115.98 136.47C119.798 135.915 123.434 134.5 127.018 132.566C132.673 129.515 138.988 127.494 144.459 124.167C147.963 122.037 151.198 119.26 154.041 116.19C159.949 109.81 166.12 104.265 170.718 96.6033C174.645 90.0606 176.11 83.588 176.048 75.8455C175.963 65.3563 163.163 60.6503 155.796 65.9937C152.546 68.3512 150.285 72.2606 149.132 76.3023C147.325 82.6359 146.838 92.9525 141.66 97.3999C133.797 104.155 122.211 105.732 112.677 103.737C105.458 102.227 99.4017 97.7742 92.9212 94.2487C89.1417 92.1926 85.4423 89.0291 81.2829 87.9581C75.7025 86.5212 69.6067 84.7626 64.4229 88.169C58.3965 92.1291 58.5695 103.759 59.7504 110.051C62.4317 124.34 71.4422 136.156 84.9111 139.126Z" fill="#2D4429" fill-opacity="0.5"/>
<path d="M91.1101 132.514C101.936 134.902 111.856 133.425 122.179 129.858C125.997 129.303 129.633 127.888 133.217 125.954C138.872 122.903 145.187 120.882 150.658 117.555C154.162 115.425 157.397 112.648 160.24 109.577C166.148 103.198 172.319 97.6531 176.917 89.9911C180.844 83.4484 182.309 76.9758 182.247 69.2333C182.162 58.7441 169.362 54.038 161.995 59.3815C158.745 61.7389 156.484 65.6484 155.331 69.6901C153.524 76.0237 153.036 86.3403 147.859 90.7876C139.996 97.5424 128.41 99.1199 118.876 97.1251C111.657 95.6145 105.601 91.162 99.1202 87.6365C95.3407 85.5804 91.6413 82.4169 87.4819 81.3459C81.9014 79.909 75.8057 78.1504 70.6219 81.5568C64.5954 85.5169 64.7684 97.1465 65.9493 103.439C68.6307 117.727 77.6412 129.543 91.1101 132.514Z" fill="#FF70CE"/>
<path d="M124.69 128.953C113.452 133.162 102.811 135.095 91.1101 132.514C77.6412 129.543 68.6307 117.727 65.9493 103.439C64.7684 97.1465 64.5954 85.5169 70.6219 81.5568C75.8057 78.1504 81.9014 79.909 87.4819 81.3459C91.6413 82.4169 95.3407 85.5804 99.1202 87.6365C105.601 91.162 111.657 95.6145 118.876 97.1251C128.41 99.1199 139.996 97.5424 147.859 90.7876C153.036 86.3403 153.524 76.0237 155.331 69.6901C156.484 65.6484 158.745 61.7389 161.995 59.3815C169.362 54.038 182.162 58.7441 182.247 69.2333C182.309 76.9758 180.844 83.4484 176.917 89.9911C172.319 97.6531 166.148 103.198 160.24 109.577C157.397 112.648 154.162 115.425 150.658 117.555C145.187 120.882 138.872 122.903 133.217 125.954C127.857 128.846 122.382 130.577 116.357 130.007" stroke="#8B0486" stroke-width="3" stroke-linecap="round"/>
<path d="M96.0692 129.208C106.896 131.596 116.815 130.119 127.139 126.552C130.956 125.997 134.592 124.582 138.176 122.648C143.831 119.597 150.146 117.576 155.618 114.249C159.121 112.119 162.356 109.342 165.2 106.271C171.107 99.8914 177.279 94.347 181.876 86.685C185.803 80.1423 187.268 73.6697 187.206 65.9272C187.121 55.438 174.321 50.732 166.954 56.0754C163.704 58.4329 161.443 62.3423 160.29 66.384C158.484 72.7176 157.996 83.0342 152.818 87.4816C144.955 94.2363 133.369 95.8138 123.835 93.819C116.616 92.3084 110.56 87.8559 104.079 84.3304C100.3 82.2743 96.6004 79.1108 92.441 78.0398C86.8605 76.6029 80.7648 74.8443 75.581 78.2507C69.5545 82.2108 69.7275 93.8404 70.9084 100.133C73.5898 114.421 82.6003 126.237 96.0692 129.208Z" fill="#FFA5E0"/>
<path d="M81.0895 109.637C81.3304 109.98 81.6081 109.93 81.9616 109.93C82.9919 111.611 83.3238 112.671 85.4283 112.671C86.8195 112.671 88.3978 112.896 89.7725 112.618C91.6888 112.232 93.0748 110.692 94.3643 109.239C95.5058 107.953 95.2726 104.664 94.9996 103.03C94.3952 99.4135 93.7328 96.033 90.9191 93.8462C89.5157 92.7555 87.6277 91.8256 85.8698 92.1769C82.0825 92.9338 79.8299 97.3899 79.8299 101.326C79.8299 103.882 79.6305 107.561 81.0895 109.637Z" fill="#D5FFFF" stroke="#193900" stroke-width="3" stroke-linecap="round"/>
<path d="M93.1477 123.237C95.3328 125.043 97.1558 125.006 99.7905 125.006C102.248 126.195 105.074 124.959 107.639 124.579C109.846 124.251 111.03 122.406 111.03 120.18C111.03 117.003 110.504 114.319 109.125 111.5C108.479 110.179 107.538 109.052 106.498 108.079C105.002 106.68 103.331 106.978 101.465 106.978C99.2551 106.978 96.8322 106.705 95.1395 108.513C92.9778 110.821 91.1713 113.559 90.5477 116.877C90.031 119.625 91.1449 121.582 93.1477 123.237Z" fill="#D5FFFF" stroke="#193900" stroke-width="3" stroke-linecap="round"/>
<path d="M107.02 109.04C108.416 116.165 112.721 114.674 117.716 114.674C121.647 114.674 124.765 114.858 127.589 111.506C129.073 109.745 129.13 107.805 128.106 105.596C127.317 103.894 125.686 102.445 123.918 102.445C121.194 102.445 118.468 102.128 115.73 102.128C113.688 102.128 111.364 101.921 109.405 102.609C106.911 103.484 106.546 106.619 107.02 109.04Z" fill="#D5FFFF" stroke="#193900" stroke-width="3" stroke-linecap="round"/>
<path d="M129.85 120.613C132.382 120.063 133.411 116.677 136.03 116.677C139.847 115.754 146.301 113.288 146.301 108.22C146.301 106.347 145.82 103.162 143.642 102.679C142.081 102.333 139.674 103.145 138.302 103.926C135.658 105.431 132.753 106.342 130.561 108.659C128.935 110.377 126.731 111.61 126.163 114.2C125.586 116.825 126.454 121.352 129.85 120.613Z" fill="#D5FFFF" stroke="#193900" stroke-width="3" stroke-linecap="round"/>
<path d="M155.371 100.301C156.334 99.8643 154.526 99.7485 155.603 99.7034C157.292 98.4167 160.128 95.8213 160.157 93.3542C160.168 92.406 160.339 89.9952 159.086 89.9044C158.088 89.832 156.437 89.5858 155.791 90.5955C154.95 91.9118 153.65 93.0472 152.524 94.0688C150.186 96.1884 146.057 97.3724 144.923 100.781C144.565 101.858 144.513 103.71 145.972 103.71C147.77 103.71 148.988 103.017 150.656 102.24C152.196 101.521 153.821 101.004 155.371 100.301Z" fill="#D5FFFF" stroke="#193900" stroke-width="3" stroke-linecap="round"/>
<path d="M165.497 97.2434C166.456 96.597 169.55 95.4929 169.75 94.1156C173.46 91.0402 176.184 85.7138 171.925 81.3294C169.492 78.8257 166.146 80.4159 164.614 83.2799C163.61 85.1576 162.398 86.8287 161.519 88.7739C160.779 90.4112 159.479 91.7492 159.479 93.6471C159.479 95.4868 159.303 98.7896 161.826 98.8599C163.149 98.8969 164.421 97.9681 165.497 97.2434Z" fill="#D5FFFF" stroke="#193900" stroke-width="3" stroke-linecap="round"/>
<path d="M164.937 82.2607C166.224 82.042 170.525 81.1666 170.525 79.3556C172.177 77.9577 173.626 76.4098 173.626 74.0431C173.626 72.405 173.25 70.9827 172.366 69.6502C171.697 68.6426 171.087 66.8656 169.696 66.8095C168.565 66.7639 166.79 68.3052 165.702 68.7892C163.738 69.6623 161.414 70.2997 160.868 72.8248C160.477 74.632 160.862 77.4201 161.417 79.1213C162.044 81.0453 162.855 82.6147 164.937 82.2607Z" fill="#D5FFFF" stroke="#193900" stroke-width="3" stroke-linecap="round"/>
</svg>
