<svg width="67" height="61" viewBox="0 0 67 61" fill="none" xmlns="http://www.w3.org/2000/svg">
<ellipse cx="23.3688" cy="24.9796" rx="23.3688" ry="24.9796" transform="matrix(-0.440987 -0.897514 0.927669 -0.373403 20.6545 60.6772)" stroke="#B0FFA3"/>
<path d="M21.8149 10.1102C17.7772 11.7354 14.3524 14.413 11.9251 17.842C9.49792 21.271 8.16448 25.3157 8.07463 29.5216C7.98478 33.7275 9.14209 37.9279 11.4165 41.6511C13.6909 45.3742 16.9924 48.4725 20.95 50.5979C24.9075 52.7233 29.3644 53.7916 33.8198 53.6827C38.2753 53.5739 42.5528 52.2922 46.1719 49.9816C46.1719 49.9816 58.1778 5.20481 21.8149 10.1102Z" stroke="#B0FFA3"/>
<path d="M43.8944 40.9473C39.9424 42.287 36.2001 42.9023 32.0851 42.0809C27.3484 41.1353 24.1796 37.3742 23.2366 32.8261C22.8213 30.8231 22.7605 27.1214 24.8799 25.8608C26.7029 24.7766 28.8466 25.3364 30.8091 25.7937C32.2719 26.1346 33.5729 27.1416 34.9021 27.7961C37.1811 28.9183 39.311 30.3355 41.8499 30.8163C45.2025 31.4513 49.2771 30.9492 52.0425 28.7991C53.8632 27.3835 54.0348 24.0996 54.6701 22.0836C55.0755 20.7971 55.8709 19.5527 57.0138 18.8023C59.6045 17.1015 64.106 18.5994 64.1358 21.9382C64.1577 24.4027 63.6424 26.463 62.2616 28.5455C60.6446 30.9844 58.4743 32.7492 56.3967 34.78C55.3967 35.7574 54.2589 36.6412 53.0269 37.3193C51.1028 38.3782 48.8818 39.0215 46.8932 39.9928C45.0082 40.9134 43.0826 41.4644 40.9639 41.2829" stroke="#B0FFA3" stroke-linecap="round"/>
<path d="M45.6385 39.895C41.6864 41.2346 37.9441 41.85 33.8291 41.0285C29.0924 40.083 25.9236 36.3218 24.9806 31.7738C24.5653 29.7708 24.5045 26.069 26.6239 24.8085C28.4469 23.7242 30.5906 24.284 32.5532 24.7414C34.0159 25.0823 35.3169 26.0892 36.6461 26.7437C38.9251 27.8659 41.055 29.2832 43.5939 29.764C46.9466 30.3989 51.0211 29.8968 53.7865 27.7468C55.6072 26.3311 55.7788 23.0473 56.4141 21.0313C56.8196 19.7448 57.6149 18.5004 58.7579 17.75C61.3485 16.0491 65.8501 17.5471 65.8798 20.8859C65.9017 23.3504 65.3864 25.4106 64.0056 27.4932C62.3886 29.9321 60.2183 31.6969 58.1407 33.7277C57.1407 34.7051 56.003 35.5889 54.7709 36.2669C52.8468 37.3258 50.6258 37.9692 48.6372 38.9404C46.7522 39.861 44.8266 40.412 42.7079 40.2306" stroke="#B0FFA3" stroke-linecap="round"/>
<path d="M28.5612 34.799C28.6459 34.9081 28.7435 34.8922 28.8678 34.8922C29.2302 35.4274 29.3469 35.7647 30.087 35.7647C30.5763 35.7647 31.1313 35.8361 31.6148 35.748C32.2887 35.625 32.7761 35.1348 33.2296 34.6722C33.631 34.2628 33.549 33.2161 33.453 32.696C33.2405 31.5447 33.0075 30.4687 32.018 29.7726C31.5245 29.4255 30.8605 29.1295 30.2423 29.2413C28.9103 29.4822 28.1182 30.9006 28.1182 32.1534C28.1182 32.9671 28.048 34.1382 28.5612 34.799Z" stroke="#B0FFA3" stroke-linecap="round"/>
<path d="M32.8017 39.128C33.5702 39.7029 34.2113 39.6911 35.1379 39.6911C36.0021 40.0694 36.996 39.6761 37.898 39.555C38.6741 39.4508 39.0907 38.8635 39.0907 38.1548C39.0907 37.1436 38.9056 36.2894 38.4205 35.3918C38.1933 34.9715 37.8625 34.6126 37.4967 34.303C36.9705 33.8577 36.3828 33.9525 35.7266 33.9525C34.9496 33.9525 34.0975 33.8656 33.5022 34.441C32.742 35.1758 32.1067 36.0474 31.8874 37.1033C31.7057 37.9781 32.0974 38.6011 32.8017 39.128Z" stroke="#B0FFA3" stroke-linecap="round"/>
<path d="M37.6804 34.6088C38.1712 36.8769 39.6851 36.4024 41.4421 36.4024C42.8245 36.4024 43.9208 36.4608 44.9141 35.3937C45.4358 34.8332 45.4559 34.2159 45.0958 33.5126C44.8185 32.971 44.2446 32.5096 43.6229 32.5096C42.665 32.5096 41.7065 32.4089 40.7435 32.4089C40.0254 32.4089 39.208 32.3429 38.5191 32.5618C37.6419 32.8404 37.5137 33.8385 37.6804 34.6088Z" stroke="#B0FFA3" stroke-linecap="round"/>
<path d="M45.7091 38.2928C46.5995 38.1174 46.9615 37.0399 47.8824 37.0399C49.225 36.7461 51.4945 35.9609 51.4945 34.3478C51.4945 33.7515 51.3256 32.7378 50.5593 32.5841C50.0104 32.474 49.1641 32.7325 48.6813 32.9812C47.7516 33.4601 46.7299 33.7501 45.959 34.4876C45.3873 35.0346 44.6123 35.4268 44.4123 36.2513C44.2097 37.0868 44.5148 38.528 45.7091 38.2928Z" stroke="#B0FFA3" stroke-linecap="round"/>
<path d="M54.6844 31.8272C55.023 31.6882 54.3871 31.6514 54.7658 31.637C55.36 31.2275 56.3572 30.4013 56.3674 29.616C56.3713 29.3142 56.4313 28.5469 55.9907 28.5179C55.6399 28.4949 55.0591 28.4165 54.8321 28.7379C54.5361 29.1569 54.0792 29.5183 53.683 29.8435C52.8608 30.5182 51.4088 30.8951 51.0099 31.9801C50.8839 32.3227 50.8658 32.9123 51.379 32.9123C52.0112 32.9123 52.4394 32.6919 53.026 32.4443C53.5677 32.2157 54.1392 32.0509 54.6844 31.8272Z" stroke="#B0FFA3" stroke-linecap="round"/>
<path d="M58.2454 30.854C58.5828 30.6482 59.6707 30.2968 59.741 29.8584C61.0457 28.8795 62.0039 27.184 60.5058 25.7885C59.6503 24.9915 58.4738 25.4977 57.935 26.4093C57.5817 27.007 57.1556 27.5389 56.8464 28.1581C56.5861 28.6793 56.1289 29.1052 56.1289 29.7092C56.1289 30.2948 56.0672 31.3461 56.9543 31.3685C57.4196 31.3803 57.8672 31.0847 58.2454 30.854Z" stroke="#B0FFA3" stroke-linecap="round"/>
<path d="M58.0485 26.0849C58.501 26.0152 60.0136 25.7366 60.0136 25.1601C60.5945 24.7152 61.104 24.2225 61.104 23.4692C61.104 22.9477 60.9721 22.495 60.661 22.0709C60.4258 21.7502 60.2111 21.1845 59.722 21.1667C59.3242 21.1522 58.7001 21.6428 58.3173 21.7968C57.6268 22.0747 56.8093 22.2776 56.6173 23.0814C56.4799 23.6566 56.6153 24.5441 56.8104 25.0856C57.0311 25.698 57.3163 26.1975 58.0485 26.0849Z" stroke="#B0FFA3" stroke-linecap="round"/>
</svg>
